<svg xmlns="http://www.w3.org/2000/svg" xmlns:xlink="http://www.w3.org/1999/xlink" width="1920" zoomAndPan="magnify" viewBox="0 0 1440 809.999993" height="1080" preserveAspectRatio="xMidYMid meet" version="1.0"><defs><clipPath id="0a4c197fb1"><path d="M 317.71875 357 L 400 357 L 400 450 L 317.71875 450 Z M 317.71875 357 " clip-rule="nonzero"/></clipPath><clipPath id="760ac24004"><path d="M 1040 355 L 1122.46875 355 L 1122.46875 448 L 1040 448 Z M 1040 355 " clip-rule="nonzero"/></clipPath></defs><rect x="-144" width="1728" fill="#ffffff" y="-80.999999" height="971.999992" fill-opacity="1"/><rect x="-144" width="1728" fill="#ffffff" y="-80.999999" height="971.999992" fill-opacity="1"/><path fill="#e5d392" d="M 744.601562 424.652344 L 765.441406 401.824219 L 744.601562 378.996094 L 723.964844 355.96875 L 723.964844 383.363281 L 732.300781 392.496094 L 740.632812 401.824219 L 732.300781 410.957031 L 723.964844 420.285156 L 723.964844 447.480469 Z M 744.601562 424.652344 " fill-opacity="1" fill-rule="nonzero"/><path fill="#e5d392" d="M 695.980469 424.652344 L 675.339844 401.824219 L 695.980469 378.996094 L 716.820312 355.96875 L 716.820312 383.363281 L 708.484375 392.496094 L 700.148438 401.824219 L 708.484375 410.957031 L 716.820312 420.285156 L 716.820312 447.480469 Z M 695.980469 424.652344 " fill-opacity="1" fill-rule="nonzero"/><path fill="#e5d392" d="M 835.695312 538.195312 L 732.101562 453.039062 L 732.101562 499.289062 L 833.117188 599.535156 Z M 835.695312 538.195312 " fill-opacity="1" fill-rule="nonzero"/><path fill="#e5d392" d="M 830.933594 647.375 L 832.71875 604.894531 L 732.101562 504.648438 L 732.101562 549.113281 Z M 830.933594 647.375 " fill-opacity="1" fill-rule="nonzero"/><path fill="#e5d392" d="M 732.101562 602.117188 L 828.550781 698.589844 L 830.734375 652.734375 L 732.101562 554.671875 Z M 732.101562 602.117188 " fill-opacity="1" fill-rule="nonzero"/><path fill="#e5d392" d="M 610.644531 534.625 L 714.238281 449.464844 L 714.238281 495.714844 L 613.421875 595.960938 Z M 610.644531 534.625 " fill-opacity="1" fill-rule="nonzero"/><path fill="#e5d392" d="M 615.40625 643.800781 L 613.621094 601.320312 L 714.238281 501.078125 L 714.238281 545.542969 Z M 615.40625 643.800781 " fill-opacity="1" fill-rule="nonzero"/><path fill="#e5d392" d="M 714.238281 598.542969 L 617.789062 695.015625 L 615.804688 649.160156 L 714.238281 551.101562 Z M 714.238281 598.542969 " fill-opacity="1" fill-rule="nonzero"/><path fill="#e5d392" d="M 853.753906 292.050781 L 768.417969 395.671875 L 814.660156 395.671875 L 915.078125 294.632812 Z M 853.753906 292.050781 " fill-opacity="1" fill-rule="nonzero"/><path fill="#e5d392" d="M 962.90625 296.816406 L 920.238281 294.828125 L 820.019531 395.671875 L 864.671875 395.671875 Z M 962.90625 296.816406 " fill-opacity="1" fill-rule="nonzero"/><path fill="#e5d392" d="M 917.460938 395.671875 L 1013.910156 299.195312 L 968.066406 297.011719 L 870.027344 395.671875 Z M 917.460938 395.671875 " fill-opacity="1" fill-rule="nonzero"/><path fill="#e5d392" d="M 850.183594 517.15625 L 764.847656 413.535156 L 811.085938 413.535156 L 911.507812 514.375 Z M 850.183594 517.15625 " fill-opacity="1" fill-rule="nonzero"/><path fill="#e5d392" d="M 959.335938 512.390625 L 916.667969 514.179688 L 816.445312 413.535156 L 861.097656 413.535156 Z M 959.335938 512.390625 " fill-opacity="1" fill-rule="nonzero"/><path fill="#e5d392" d="M 913.886719 413.535156 L 1010.339844 510.007812 L 964.496094 511.996094 L 866.457031 413.535156 Z M 913.886719 413.535156 " fill-opacity="1" fill-rule="nonzero"/><path fill="#e5d392" d="M 586.035156 292.050781 L 671.371094 395.671875 L 625.132812 395.671875 L 524.710938 294.632812 Z M 586.035156 292.050781 " fill-opacity="1" fill-rule="nonzero"/><path fill="#e5d392" d="M 476.882812 296.816406 L 519.550781 294.828125 L 619.574219 395.671875 L 575.121094 395.671875 Z M 476.882812 296.816406 " fill-opacity="1" fill-rule="nonzero"/><path fill="#e5d392" d="M 522.132812 395.671875 L 425.679688 299.195312 L 471.722656 297.011719 L 569.761719 395.671875 Z M 522.132812 395.671875 " fill-opacity="1" fill-rule="nonzero"/><path fill="#e5d392" d="M 589.605469 517.15625 L 674.945312 413.535156 L 628.703125 413.535156 L 528.285156 514.375 Z M 589.605469 517.15625 " fill-opacity="1" fill-rule="nonzero"/><path fill="#e5d392" d="M 480.453125 512.390625 L 523.125 514.179688 L 623.148438 413.535156 L 578.691406 413.535156 Z M 480.453125 512.390625 " fill-opacity="1" fill-rule="nonzero"/><path fill="#e5d392" d="M 525.703125 413.535156 L 429.253906 510.007812 L 475.292969 511.996094 L 573.332031 413.535156 Z M 525.703125 413.535156 " fill-opacity="1" fill-rule="nonzero"/><path fill="#e5d392" d="M 835.695312 268.628906 L 732.101562 353.785156 L 732.101562 307.535156 L 833.117188 207.289062 Z M 835.695312 268.628906 " fill-opacity="1" fill-rule="nonzero"/><path fill="#e5d392" d="M 830.933594 159.449219 L 832.71875 201.929688 L 732.101562 302.175781 L 732.101562 257.710938 Z M 830.933594 159.449219 " fill-opacity="1" fill-rule="nonzero"/><path fill="#e5d392" d="M 732.101562 204.707031 L 828.550781 108.234375 L 830.734375 154.089844 L 732.101562 252.152344 Z M 732.101562 204.707031 " fill-opacity="1" fill-rule="nonzero"/><path fill="#e5d392" d="M 610.644531 272.199219 L 714.238281 357.359375 L 714.238281 311.105469 L 613.421875 210.863281 Z M 610.644531 272.199219 " fill-opacity="1" fill-rule="nonzero"/><path fill="#e5d392" d="M 615.40625 163.023438 L 613.621094 205.503906 L 714.238281 305.746094 L 714.238281 261.28125 Z M 615.40625 163.023438 " fill-opacity="1" fill-rule="nonzero"/><path fill="#e5d392" d="M 714.238281 208.28125 L 617.789062 111.808594 L 615.804688 157.664062 L 714.238281 255.722656 Z M 714.238281 208.28125 " fill-opacity="1" fill-rule="nonzero"/><path fill="#e5d392" d="M 866.464844 544.820312 L 860.292969 550.996094 L 743.253906 433.933594 L 749.425781 427.757812 Z M 866.464844 544.820312 " fill-opacity="1" fill-rule="nonzero"/><path fill="#e5d392" d="M 686.714844 431.242188 L 692.890625 437.417969 L 575.851562 554.480469 L 569.679688 548.304688 Z M 686.714844 431.242188 " fill-opacity="1" fill-rule="nonzero"/><path fill="#e5d392" d="M 761.355469 374.089844 L 755.179688 367.910156 L 872.21875 250.851562 L 878.394531 257.027344 Z M 761.355469 374.089844 " fill-opacity="1" fill-rule="nonzero"/><path fill="#e5d392" d="M 568.5 261.929688 L 574.675781 255.753906 L 691.714844 372.8125 L 685.539062 378.992188 Z M 568.5 261.929688 " fill-opacity="1" fill-rule="nonzero"/><path fill="#e5d392" d="M 747.582031 688.464844 L 768.417969 665.636719 L 747.582031 642.609375 L 726.941406 619.78125 L 726.941406 647.175781 L 735.277344 656.308594 L 743.609375 665.636719 L 735.277344 674.769531 L 726.941406 683.898438 L 726.941406 711.292969 Z M 747.582031 688.464844 " fill-opacity="1" fill-rule="nonzero"/><path fill="#e5d392" d="M 699.15625 688.464844 L 678.316406 665.636719 L 699.15625 642.609375 L 719.796875 619.78125 L 719.796875 647.175781 L 711.460938 656.308594 L 703.125 665.636719 L 711.460938 674.769531 L 719.796875 683.898438 L 719.796875 711.292969 Z M 699.15625 688.464844 " fill-opacity="1" fill-rule="nonzero"/><path fill="#e5d392" d="M 747.582031 787.121094 L 768.417969 764.292969 L 747.582031 741.464844 L 726.941406 718.636719 L 726.941406 745.832031 L 735.277344 754.964844 L 743.609375 764.292969 L 735.277344 773.425781 L 726.941406 782.753906 L 726.941406 809.949219 Z M 747.582031 787.121094 " fill-opacity="1" fill-rule="nonzero"/><path fill="#e5d392" d="M 699.15625 787.121094 L 678.316406 764.292969 L 699.15625 741.464844 L 719.796875 718.636719 L 719.796875 745.832031 L 711.460938 754.964844 L 703.125 764.292969 L 711.460938 773.425781 L 719.796875 782.753906 L 719.796875 809.949219 Z M 699.15625 787.121094 " fill-opacity="1" fill-rule="nonzero"/><path fill="#e5d392" d="M 630.292969 713.078125 L 651.128906 735.90625 L 670.777344 757.542969 L 670.777344 758.933594 L 671.371094 758.339844 L 671.96875 758.933594 L 671.96875 757.542969 L 691.613281 735.90625 L 712.453125 713.078125 L 691.613281 690.25 L 671.96875 668.613281 L 671.96875 667.226562 L 671.371094 667.820312 L 670.777344 667.226562 L 670.777344 668.613281 L 651.128906 690.25 Z M 663.433594 703.75 L 671.171875 695.214844 L 678.914062 703.75 L 687.25 712.882812 L 678.914062 722.011719 L 671.171875 730.546875 L 663.433594 722.011719 L 655.097656 712.882812 Z M 663.433594 703.75 " fill-opacity="1" fill-rule="nonzero"/><path fill="#e5d392" d="M 734.878906 713.078125 L 755.71875 735.90625 L 775.164062 757.347656 L 775.164062 758.734375 L 775.761719 758.140625 L 776.355469 758.734375 L 776.355469 757.347656 L 796.003906 735.710938 L 816.84375 712.882812 L 796.003906 690.054688 L 776.355469 668.417969 L 776.355469 667.027344 L 775.761719 667.621094 L 775.164062 667.027344 L 775.164062 668.417969 L 755.519531 690.054688 Z M 768.019531 703.75 L 775.761719 695.214844 L 783.5 703.75 L 791.835938 712.882812 L 783.5 722.011719 L 775.761719 730.546875 L 768.019531 722.011719 L 759.6875 712.882812 Z M 768.019531 703.75 " fill-opacity="1" fill-rule="nonzero"/><path fill="#e5d392" d="M 744.007812 68.535156 L 764.847656 45.707031 L 744.007812 22.878906 L 723.367188 0.0507812 L 723.367188 27.246094 L 731.703125 36.574219 L 740.039062 45.707031 L 731.703125 55.035156 L 723.367188 64.167969 L 723.367188 91.363281 Z M 744.007812 68.535156 " fill-opacity="1" fill-rule="nonzero"/><path fill="#e5d392" d="M 695.585938 68.535156 L 674.746094 45.707031 L 695.585938 22.878906 L 716.222656 0.0507812 L 716.222656 27.246094 L 707.886719 36.574219 L 699.554688 45.707031 L 707.886719 55.035156 L 716.222656 64.167969 L 716.222656 91.363281 Z M 695.585938 68.535156 " fill-opacity="1" fill-rule="nonzero"/><path fill="#e5d392" d="M 744.007812 167.191406 L 764.847656 144.363281 L 744.007812 121.535156 L 723.367188 98.707031 L 723.367188 125.902344 L 731.703125 135.230469 L 740.039062 144.363281 L 731.703125 153.691406 L 723.367188 162.824219 L 723.367188 190.21875 Z M 744.007812 167.191406 " fill-opacity="1" fill-rule="nonzero"/><path fill="#e5d392" d="M 695.585938 167.191406 L 674.746094 144.363281 L 695.585938 121.535156 L 716.222656 98.707031 L 716.222656 125.902344 L 707.886719 135.230469 L 699.554688 144.363281 L 707.886719 153.691406 L 716.222656 162.824219 L 716.222656 190.21875 Z M 695.585938 167.191406 " fill-opacity="1" fill-rule="nonzero"/><path fill="#e5d392" d="M 626.71875 93.148438 L 647.558594 115.976562 L 667.203125 137.613281 L 667.203125 139.003906 L 667.800781 138.40625 L 668.394531 139.003906 L 668.394531 137.613281 L 688.042969 115.976562 L 708.878906 93.148438 L 688.042969 70.320312 L 668.394531 48.683594 L 668.394531 47.292969 L 667.800781 47.890625 L 667.203125 47.292969 L 667.203125 48.683594 L 647.558594 70.320312 Z M 659.863281 84.019531 L 667.601562 75.480469 L 675.339844 84.019531 L 683.675781 93.148438 L 675.339844 102.28125 L 667.601562 110.816406 L 659.863281 102.28125 L 651.527344 93.148438 Z M 659.863281 84.019531 " fill-opacity="1" fill-rule="nonzero"/><path fill="#e5d392" d="M 731.304688 93.148438 L 752.144531 115.976562 L 771.792969 137.613281 L 771.792969 139.003906 L 772.386719 138.40625 L 772.984375 139.003906 L 772.984375 137.613281 L 792.628906 115.976562 L 813.46875 93.148438 L 792.628906 70.320312 L 772.984375 48.683594 L 772.984375 47.292969 L 772.386719 47.890625 L 771.792969 47.292969 L 771.792969 48.683594 L 752.144531 70.320312 Z M 764.449219 84.019531 L 772.1875 75.480469 L 779.929688 84.019531 L 788.265625 93.148438 L 779.929688 102.28125 L 772.1875 110.816406 L 764.449219 102.28125 L 756.113281 93.148438 Z M 764.449219 84.019531 " fill-opacity="1" fill-rule="nonzero"/><path fill="#e5d392" d="M 368.921875 456.214844 L 389.757812 479.042969 L 409.40625 500.679688 L 409.40625 502.070312 L 410 501.472656 L 410.597656 502.070312 L 410.597656 500.679688 L 430.246094 479.042969 L 451.082031 456.214844 L 430.246094 433.386719 L 410.597656 411.75 L 410.597656 410.359375 L 410 410.957031 L 409.40625 410.359375 L 409.40625 411.75 L 389.757812 433.386719 Z M 402.0625 447.082031 L 409.804688 438.546875 L 417.542969 447.082031 L 425.878906 456.214844 L 417.542969 465.34375 L 409.804688 473.882812 L 402.0625 465.34375 L 393.726562 456.214844 Z M 402.0625 447.082031 " fill-opacity="1" fill-rule="nonzero"/><path fill="#e5d392" d="M 419.925781 403.214844 L 440.761719 426.042969 L 460.410156 447.679688 L 460.410156 449.066406 L 461.003906 448.472656 L 461.601562 449.066406 L 461.601562 447.679688 L 481.25 426.042969 L 502.085938 403.214844 L 481.25 380.386719 L 461.601562 358.75 L 461.601562 357.359375 L 461.003906 357.953125 L 460.410156 357.359375 L 460.410156 358.75 L 440.761719 380.386719 Z M 453.066406 394.082031 L 460.808594 385.546875 L 468.546875 394.082031 L 476.882812 403.214844 L 468.546875 412.34375 L 460.808594 420.878906 L 453.066406 412.34375 L 444.730469 403.214844 Z M 453.066406 394.082031 " fill-opacity="1" fill-rule="nonzero"/><g clip-path="url(#0a4c197fb1)"><path fill="#e5d392" d="M 317.71875 403.214844 L 338.558594 426.042969 L 358.203125 447.679688 L 358.203125 449.066406 L 358.800781 448.472656 L 359.394531 449.066406 L 359.394531 447.679688 L 379.042969 426.042969 L 399.878906 403.214844 L 379.042969 380.386719 L 359.394531 358.75 L 359.394531 357.359375 L 358.800781 357.953125 L 358.203125 357.359375 L 358.203125 358.75 L 338.558594 380.386719 Z M 350.859375 394.082031 L 358.601562 385.546875 L 366.339844 394.082031 L 374.675781 403.214844 L 366.339844 412.34375 L 358.601562 420.878906 L 350.859375 412.34375 L 342.527344 403.214844 Z M 350.859375 394.082031 " fill-opacity="1" fill-rule="nonzero"/></g><path fill="#e5d392" d="M 368.921875 350.210938 L 389.757812 373.039062 L 409.40625 394.679688 L 409.40625 396.066406 L 410 395.472656 L 410.597656 396.066406 L 410.597656 394.679688 L 430.246094 373.039062 L 451.082031 350.210938 L 430.246094 327.382812 L 410.597656 305.746094 L 410.597656 304.359375 L 410 304.953125 L 409.40625 304.359375 L 409.40625 305.746094 L 389.757812 327.382812 Z M 402.0625 340.882812 L 409.804688 332.347656 L 417.542969 340.882812 L 425.878906 350.015625 L 417.542969 359.144531 L 409.804688 367.679688 L 402.0625 359.144531 L 393.726562 350.015625 Z M 402.0625 340.882812 " fill-opacity="1" fill-rule="nonzero"/><path fill="#e5d392" d="M 989.5 454.824219 L 1010.339844 477.652344 L 1029.988281 499.289062 L 1029.988281 500.679688 L 1030.582031 500.082031 L 1031.175781 500.679688 L 1031.175781 499.289062 L 1050.824219 477.652344 L 1071.664062 454.824219 L 1050.824219 431.996094 L 1031.175781 410.359375 L 1031.175781 408.96875 L 1030.582031 409.566406 L 1029.988281 408.96875 L 1029.988281 410.359375 L 1010.339844 431.996094 Z M 1022.644531 445.695312 L 1030.382812 437.15625 L 1038.125 445.695312 L 1046.460938 454.824219 L 1038.125 463.957031 L 1030.382812 472.492188 L 1022.644531 463.957031 L 1014.308594 454.824219 Z M 1022.644531 445.695312 " fill-opacity="1" fill-rule="nonzero"/><g clip-path="url(#760ac24004)"><path fill="#e5d392" d="M 1040.703125 401.824219 L 1061.542969 424.652344 L 1081.1875 446.289062 L 1081.1875 447.679688 L 1081.785156 447.082031 L 1082.378906 447.679688 L 1082.378906 446.289062 L 1102.027344 424.652344 L 1122.46875 401.824219 L 1101.628906 378.996094 L 1081.984375 357.359375 L 1081.984375 355.96875 L 1081.386719 356.566406 L 1080.792969 355.96875 L 1080.792969 357.359375 L 1061.144531 378.996094 Z M 1073.847656 392.496094 L 1081.585938 383.957031 L 1089.324219 392.496094 L 1097.660156 401.625 L 1089.324219 410.757812 L 1081.585938 419.292969 L 1073.847656 410.757812 L 1065.511719 401.625 Z M 1073.847656 392.496094 " fill-opacity="1" fill-rule="nonzero"/></g><path fill="#e5d392" d="M 938.496094 401.824219 L 959.335938 424.652344 L 978.984375 446.289062 L 978.984375 447.679688 L 979.578125 447.082031 L 980.175781 447.679688 L 980.175781 446.289062 L 999.425781 424.652344 L 1020.261719 401.824219 L 999.425781 378.996094 L 979.777344 357.359375 L 979.777344 355.96875 L 979.179688 356.566406 L 978.585938 355.96875 L 978.585938 357.359375 L 958.9375 378.996094 Z M 971.640625 392.496094 L 979.378906 383.957031 L 987.121094 392.496094 L 995.457031 401.625 L 987.121094 410.757812 L 979.378906 419.292969 L 971.640625 410.957031 L 963.304688 401.824219 Z M 971.640625 392.496094 " fill-opacity="1" fill-rule="nonzero"/><path fill="#e5d392" d="M 989.5 348.625 L 1010.339844 371.453125 L 1029.789062 393.089844 L 1029.789062 394.480469 L 1030.382812 393.882812 L 1030.980469 394.480469 L 1030.980469 393.089844 L 1050.625 371.453125 L 1071.464844 348.625 L 1050.625 325.796875 L 1030.980469 304.160156 L 1030.980469 302.769531 L 1030.382812 303.367188 L 1029.789062 302.769531 L 1029.789062 304.160156 L 1010.140625 325.796875 Z M 1022.644531 339.492188 L 1030.382812 330.957031 L 1038.125 339.492188 L 1046.460938 348.625 L 1038.125 357.757812 L 1030.382812 366.292969 L 1022.644531 357.757812 L 1014.308594 348.625 Z M 1022.644531 339.492188 " fill-opacity="1" fill-rule="nonzero"/><path fill="#e5d392" d="M 488.195312 167.785156 L 483.628906 207.089844 L 479.265625 244.210938 L 478.074219 245.402344 L 479.265625 245.402344 L 479.066406 246.59375 L 480.257812 245.402344 L 517.566406 246.195312 L 557.058594 246.988281 L 561.625 207.6875 L 565.992188 170.566406 L 567.179688 169.375 L 565.992188 169.375 L 566.1875 168.183594 L 565 169.375 L 527.6875 168.582031 Z M 525.109375 192.003906 L 539.992188 192.402344 L 538.207031 207.089844 L 536.421875 222.972656 L 520.542969 222.574219 L 505.660156 222.175781 L 507.445312 207.488281 L 509.230469 191.605469 Z M 525.109375 192.003906 " fill-opacity="1" fill-rule="nonzero"/><path fill="#e5d392" d="M 881.9375 560.03125 L 877.371094 599.335938 L 873.007812 636.457031 L 871.816406 637.648438 L 873.007812 637.648438 L 872.808594 638.839844 L 874 637.648438 L 911.308594 638.441406 L 950.800781 639.234375 L 955.367188 599.933594 L 959.734375 562.8125 L 960.921875 561.621094 L 959.734375 561.621094 L 959.929688 560.429688 L 958.742188 561.621094 L 921.429688 560.828125 Z M 918.652344 584.25 L 933.535156 584.648438 L 931.75 599.335938 L 929.964844 615.214844 L 914.085938 614.820312 L 899.203125 614.421875 L 900.988281 599.734375 L 902.773438 583.851562 Z M 918.652344 584.25 " fill-opacity="1" fill-rule="nonzero"/><path fill="#e5d392" d="M 483.234375 623.15625 L 522.132812 629.90625 L 558.847656 636.257812 L 559.839844 637.648438 L 559.839844 636.457031 L 561.027344 636.65625 L 560.035156 635.265625 L 562.816406 598.144531 L 565.792969 558.644531 L 527.09375 551.894531 L 490.378906 545.542969 L 489.386719 544.152344 L 489.386719 545.34375 L 488.195312 545.144531 L 489.1875 546.535156 L 486.410156 583.65625 Z M 509.429688 587.625 L 510.621094 572.933594 L 525.304688 575.515625 L 540.984375 578.292969 L 539.792969 594.175781 L 538.601562 608.863281 L 523.917969 606.285156 L 508.238281 603.503906 Z M 509.429688 587.625 " fill-opacity="1" fill-rule="nonzero"/><path fill="#e5d392" d="M 504.070312 132.453125 L 518.957031 132.652344 L 517.167969 147.539062 L 515.382812 163.222656 L 499.308594 163.023438 L 484.621094 162.625 L 486.210938 147.9375 L 488.195312 132.054688 Z M 504.070312 132.453125 " fill-opacity="1" fill-rule="nonzero"/><path fill="#e5d392" d="M 468.347656 164.214844 L 483.234375 164.410156 L 481.445312 179.101562 L 479.660156 194.980469 L 463.785156 194.585938 L 448.898438 194.386719 L 450.6875 179.695312 L 452.472656 163.816406 Z M 468.347656 164.214844 " fill-opacity="1" fill-rule="nonzero"/><path fill="#e5d392" d="M 468.347656 129.078125 L 483.234375 129.476562 L 481.445312 144.164062 L 479.660156 160.046875 L 463.785156 159.648438 L 448.898438 159.449219 L 450.6875 144.761719 L 452.472656 128.878906 Z M 468.347656 129.078125 " fill-opacity="1" fill-rule="nonzero"/><path fill="#e5d392" d="M 1002.796875 643.601562 L 986.722656 643.40625 L 972.035156 643.207031 L 973.625 628.316406 L 975.410156 612.636719 L 991.289062 612.835938 L 1006.171875 613.03125 L 1004.585938 627.722656 Z M 1002.796875 643.601562 " fill-opacity="1" fill-rule="nonzero"/><path fill="#e5d392" d="M 966.480469 674.769531 L 950.601562 674.371094 L 935.71875 674.171875 L 937.503906 659.484375 L 939.292969 643.601562 L 955.167969 644 L 970.050781 644.199219 L 968.464844 658.886719 Z M 966.480469 674.769531 " fill-opacity="1" fill-rule="nonzero"/><path fill="#e5d392" d="M 1001.210938 679.332031 L 985.332031 679.136719 L 970.449219 678.9375 L 972.234375 664.050781 L 974.023438 648.367188 L 989.898438 648.566406 L 1004.78125 648.765625 L 1002.996094 663.453125 Z M 1001.210938 679.332031 " fill-opacity="1" fill-rule="nonzero"/><path fill="#e5d392" d="M 441.160156 614.621094 L 440.960938 599.734375 L 455.847656 601.121094 L 471.722656 602.3125 L 471.921875 618.394531 L 472.121094 633.082031 L 457.234375 631.890625 L 441.359375 630.5 Z M 441.160156 614.621094 " fill-opacity="1" fill-rule="nonzero"/><path fill="#e5d392" d="M 473.90625 649.160156 L 473.90625 634.472656 L 488.589844 635.664062 L 504.46875 637.050781 L 504.667969 652.933594 L 504.863281 667.820312 L 489.980469 666.429688 L 474.105469 665.238281 Z M 473.90625 649.160156 " fill-opacity="1" fill-rule="nonzero"/><path fill="#e5d392" d="M 438.976562 650.351562 L 438.777344 635.464844 L 453.664062 636.65625 L 469.539062 638.042969 L 469.738281 654.125 L 469.9375 668.8125 L 455.050781 667.621094 L 439.175781 666.234375 Z M 438.976562 650.351562 " fill-opacity="1" fill-rule="nonzero"/><path fill="#e5d392" d="M 883.921875 247.785156 L 922.820312 254.535156 L 959.535156 260.886719 L 960.527344 262.273438 L 960.527344 261.085938 L 961.71875 261.28125 L 960.726562 259.894531 L 963.703125 222.773438 L 966.679688 183.269531 L 927.78125 176.519531 L 891.066406 170.167969 L 890.074219 168.777344 L 890.074219 169.96875 L 888.882812 169.773438 L 889.875 171.160156 L 887.097656 208.28125 Z M 910.117188 212.25 L 911.308594 197.5625 L 925.996094 200.144531 L 941.671875 202.921875 L 940.480469 218.800781 L 939.292969 233.492188 L 924.605469 230.910156 L 908.925781 228.132812 Z M 910.117188 212.25 " fill-opacity="1" fill-rule="nonzero"/><path fill="#e5d392" d="M 974.21875 143.171875 L 974.417969 159.050781 L 974.617188 173.941406 L 959.929688 172.75 L 944.054688 171.359375 L 943.65625 155.480469 L 943.457031 140.589844 L 958.34375 141.78125 Z M 974.21875 143.171875 " fill-opacity="1" fill-rule="nonzero"/><path fill="#e5d392" d="M 1006.371094 178.308594 L 1006.570312 194.1875 L 1006.765625 209.074219 L 992.082031 207.882812 L 976.203125 206.496094 L 976.007812 190.613281 L 975.808594 175.726562 L 990.492188 176.917969 Z M 1006.371094 178.308594 " fill-opacity="1" fill-rule="nonzero"/><path fill="#e5d392" d="M 1009.941406 143.570312 L 1010.140625 159.449219 L 1010.339844 174.335938 L 995.652344 173.144531 L 979.777344 171.757812 L 979.578125 155.875 L 979.378906 140.988281 L 994.066406 142.179688 Z M 1009.941406 143.570312 " fill-opacity="1" fill-rule="nonzero"/></svg>