<svg xmlns="http://www.w3.org/2000/svg" xmlns:xlink="http://www.w3.org/1999/xlink" width="1920" zoomAndPan="magnify" viewBox="0 0 1440 809.999993" height="1080" preserveAspectRatio="xMidYMid meet" version="1.0"><defs><clipPath id="12be4a7332"><path d="M 907 0.351562 L 1439.917969 0.351562 L 1439.917969 513 L 907 513 Z M 907 0.351562 " clip-rule="nonzero"/></clipPath><clipPath id="7340497d3f"><path d="M 608 0.351562 L 1439.917969 0.351562 L 1439.917969 810 L 608 810 Z M 608 0.351562 " clip-rule="nonzero"/></clipPath><clipPath id="f40d0a0984"><path d="M 1310 0.351562 L 1439.917969 0.351562 L 1439.917969 98 L 1310 98 Z M 1310 0.351562 " clip-rule="nonzero"/></clipPath><clipPath id="13c7bb53b9"><path d="M 1420 102 L 1439.917969 102 L 1439.917969 245 L 1420 245 Z M 1420 102 " clip-rule="nonzero"/></clipPath><clipPath id="b761d20f97"><path d="M 1025 0.351562 L 1249 0.351562 L 1249 69 L 1025 69 Z M 1025 0.351562 " clip-rule="nonzero"/></clipPath><clipPath id="fb28d2b810"><path d="M 1352 167 L 1439.917969 167 L 1439.917969 391 L 1352 391 Z M 1352 167 " clip-rule="nonzero"/></clipPath></defs><g clip-path="url(#12be4a7332)"><path fill="#622a2a" d="M 1404.898438 512.308594 L 1902.34375 14.859375 L 1404.898438 -482.585938 L 907.449219 14.859375 Z M 1404.898438 -380.855469 L 1801.546875 15.792969 L 1404.898438 412.445312 L 1008.246094 15.792969 Z M 1404.898438 -380.855469 " fill-opacity="1" fill-rule="nonzero"/></g><g clip-path="url(#7340497d3f)"><path fill="#622a2a" d="M 1171.574219 -546.984375 L 842.121094 -546.984375 L 842.121094 -217.53125 L 608.796875 15.792969 L 842.121094 249.117188 L 842.121094 577.640625 L 1171.574219 577.640625 L 1404.898438 810.964844 L 1638.222656 577.640625 L 1967.675781 577.640625 L 1967.675781 248.183594 L 2201 14.859375 L 1967.675781 -218.464844 L 1967.675781 -547.917969 L 1638.222656 -547.917969 L 1404.898438 -781.242188 Z M 1584.089844 -416.320312 L 1837.011719 -416.320312 L 1837.011719 -163.398438 L 2016.207031 15.792969 L 1837.011719 194.988281 L 1837.011719 447.910156 L 1584.089844 447.910156 L 1404.898438 627.105469 L 1225.703125 447.910156 L 972.78125 447.910156 L 972.78125 194.988281 L 793.585938 15.792969 L 972.78125 -163.398438 L 972.78125 -416.320312 L 1225.703125 -416.320312 L 1404.898438 -595.515625 Z M 1584.089844 -416.320312 " fill-opacity="1" fill-rule="nonzero"/></g><path fill="#622a2a" d="M 1123.976562 294.851562 L 1123.976562 230.453125 L 1053.042969 159.523438 L 1053.042969 365.78125 L 1259.304688 365.78125 L 1188.371094 294.851562 Z M 1123.976562 294.851562 " fill-opacity="1" fill-rule="nonzero"/><g clip-path="url(#f40d0a0984)"><path fill="#622a2a" d="M 1390.84375 97.910156 L 1310.328125 17.398438 L 1390.839844 -63.113281 L 1471.355469 17.394531 Z M 1390.84375 97.910156 " fill-opacity="1" fill-rule="nonzero"/></g><path fill="#622a2a" d="M 1340.5 230.453125 C 1376.898438 208.988281 1385.296875 194.054688 1375.964844 133.390625 C 1365.699219 70.859375 1176.238281 193.121094 1238.769531 249.117188 C 1259.304688 268.71875 1297.566406 256.585938 1340.5 230.453125 Z M 1340.5 230.453125 " fill-opacity="1" fill-rule="nonzero"/><path fill="#622a2a" d="M 1222.90625 53.125 C 1258.371094 31.660156 1276.101562 29.792969 1324.632812 64.324219 C 1374.097656 98.859375 1178.105469 210.851562 1158.507812 132.457031 C 1151.972656 106.324219 1180.90625 79.257812 1222.90625 53.125 Z M 1222.90625 53.125 " fill-opacity="1" fill-rule="nonzero"/><g clip-path="url(#13c7bb53b9)"><path fill="#622a2a" d="M 1459.960938 216.453125 C 1423.5625 194.988281 1415.164062 180.054688 1424.496094 119.390625 C 1434.761719 56.859375 1624.222656 179.121094 1561.691406 235.121094 C 1540.226562 254.71875 1501.960938 242.585938 1459.960938 216.453125 Z M 1459.960938 216.453125 " fill-opacity="1" fill-rule="nonzero"/></g><g clip-path="url(#b761d20f97)"><path fill="#622a2a" d="M 1098.777344 -37.402344 C 1129.574219 -12.203125 1168.773438 -8.472656 1248.101562 14.859375 C 1177.171875 37.261719 1127.707031 39.125 1096.910156 68.058594 C 1077.308594 48.460938 1025.976562 15.792969 1025.976562 15.792969 C 1025.976562 15.792969 1076.375 -15.003906 1098.777344 -37.402344 Z M 1098.777344 -37.402344 " fill-opacity="1" fill-rule="nonzero"/></g><g clip-path="url(#fb28d2b810)"><path fill="#622a2a" d="M 1352.632812 317.25 C 1377.832031 286.449219 1381.566406 247.253906 1404.898438 167.921875 C 1427.296875 238.851562 1429.164062 288.316406 1458.09375 319.117188 C 1438.496094 338.714844 1405.832031 390.046875 1405.832031 390.046875 C 1405.832031 390.046875 1375.03125 339.648438 1352.632812 317.25 Z M 1352.632812 317.25 " fill-opacity="1" fill-rule="nonzero"/></g></svg>