<svg xmlns="http://www.w3.org/2000/svg" width="1920" height="1080" version="1.0" viewBox="0 0 1440 810"><defs><clipPath id="a"><path d="M907 .352h532.918V513H907Zm0 0"/></clipPath><clipPath id="b"><path d="M608 .352h831.918V810H608Zm0 0"/></clipPath><clipPath id="c"><path d="M1310 .352h129.918V98H1310Zm0 0"/></clipPath><clipPath id="d"><path d="M1420 102h19.918v143H1420Zm0 0"/></clipPath><clipPath id="e"><path d="M1025 .352h224V69h-224Zm0 0"/></clipPath><clipPath id="f"><path d="M1352 167h87.918v224H1352Zm0 0"/></clipPath></defs><g clip-path="url(#a)"><path fill="#622a2a" d="m1404.898 512.309 497.446-497.45-497.446-497.445L907.45 14.86Zm0-893.164 396.649 396.648-396.649 396.652-396.652-396.652Zm0 0"/></g><g clip-path="url(#b)"><path fill="#622a2a" d="M1171.574-546.984H842.121v329.453L608.797 15.793 842.12 249.117v328.524h329.453l233.324 233.324 233.325-233.324h329.453V248.184L2201 14.859l-233.324-233.324v-329.453h-329.453l-233.325-233.324ZM1584.09-416.32h252.922v252.922l179.195 179.191-179.195 179.195V447.91H1584.09l-179.192 179.195-179.195-179.195H972.781V194.988L793.586 15.793 972.78-163.398V-416.32h252.922l179.195-179.196Zm0 0"/></g><path fill="#622a2a" d="M1123.977 294.852v-64.399l-70.934-70.93v206.258h206.262l-70.934-70.93Zm0 0"/><g clip-path="url(#c)"><path fill="#622a2a" d="m1390.844 97.91-80.516-80.512 80.512-80.511 80.515 80.508Zm0 0"/></g><path fill="#622a2a" d="M1340.5 230.453c36.398-21.465 44.797-36.398 35.465-97.062-10.266-62.532-199.727 59.73-137.195 115.726 20.535 19.602 58.796 7.469 101.73-18.664Zm0 0"/><path fill="#622a2a" d="M1222.906 53.125c35.465-21.465 53.196-23.332 101.727 11.2 49.465 34.534-146.528 146.527-166.125 68.132-6.535-26.133 22.398-53.2 64.398-79.332Zm0 0"/><g clip-path="url(#d)"><path fill="#622a2a" d="M1459.96 216.453c-36.398-21.465-44.796-36.398-35.464-97.062 10.266-62.532 199.727 59.73 137.195 115.73-21.464 19.598-59.73 7.465-101.73-18.668Zm0 0"/></g><g clip-path="url(#e)"><path fill="#622a2a" d="M1098.777-37.402c30.797 25.199 69.996 28.93 149.325 52.261-70.93 22.403-120.395 24.266-151.192 53.2-19.601-19.598-70.933-52.266-70.933-52.266s50.398-30.797 72.8-53.195Zm0 0"/></g><g clip-path="url(#f)"><path fill="#622a2a" d="M1352.633 317.25c25.199-30.8 28.933-69.996 52.265-149.328 22.399 70.93 24.266 120.394 53.196 151.195-19.598 19.598-52.262 70.93-52.262 70.93s-30.8-50.399-53.2-72.797Zm0 0"/></g></svg>